<?xml version="1.0" standalone="no"?>
<!DOCTYPE svg PUBLIC "-//W3C//DTD SVG 20010904//EN"
 "http://www.w3.org/TR/2001/REC-SVG-20010904/DTD/svg10.dtd">
<svg version="1.0" xmlns="http://www.w3.org/2000/svg"
 width="559.000000pt" height="897.000000pt" viewBox="0 0 559.000000 897.000000"
 preserveAspectRatio="xMidYMid meet">

<g transform="translate(0.000000,897.000000) scale(0.100000,-0.100000)"
fill="#000000" stroke="none">
<path d="M2195 8609 c-395 -14 -813 -52 -1165 -104 -91 -14 -171 -25 -177 -25
-10 0 -13 -739 -13 -3660 l0 -3660 475 0 475 0 0 1486 c0 1440 1 1485 18 1479
123 -38 368 -58 722 -58 340 0 500 12 770 58 1112 192 1848 821 2039 1742 41
199 54 338 54 578 0 186 -4 257 -21 371 -100 648 -430 1131 -987 1442 -224
125 -527 228 -845 286 -374 68 -755 87 -1345 65z m925 -773 c280 -44 510 -121
700 -234 445 -265 659 -724 619 -1327 -20 -298 -98 -544 -245 -767 -63 -96
-258 -290 -359 -357 -222 -146 -485 -242 -810 -293 -125 -20 -177 -22 -485
-22 -355 0 -475 9 -672 51 l-78 16 0 1443 0 1442 48 11 c77 16 269 41 397 50
195 15 761 6 885 -13z"/>
</g>
</svg>
